# xmcd CD database file generated by RipIT.
#
# Track frame offsets:
#	150
#	20308
#	38414
#	51785
#	68959
#	83833
#	97320
#	119198
#	135723
#	144351
#	163386
#	174379
#	193347
#	210944
#	227512
#	250134
#
# Disc length: 3547 seconds
#
# Revision: 1
# Processed by: cddbd v1.5.1PL2 Copyright (c) Steve Scherf et al.
# Submitted via: RipIT 3.4 www.suwald.com/ripit/ripit.html at Tue Jan 3 12:51:46 CET 2006.
#
DISCID=e20dd910
DTITLE=Enya - Paint The Sky With Stars (Best Of)
DYEAR=1997
DGENRE=Pop
TTITLE0=Orinoco Flow
TTITLE1=Caribbean Blue
TTITLE2=Book Of Days
TTITLE3=Anywhere Is
TTITLE4=Shepard Moons
TTITLE5=Ebudae
TTITLE6=China Roses
TTITLE7=Shepard Moons
TTITLE8=Ebuade
TTITLE9=Storms In Africa
TTITLE10=Watermark
TTITLE11=Paint The Sky With Stars
TTITLE12=Marble Halls
TTITLE13=On My Way Home
TTITLE14=The Memory Of Trees
TTITLE15=Boadicea
EXTD=
EXTT0=
EXTT1=
EXTT2=
EXTT3=
EXTT4=
EXTT5=
EXTT6=
EXTT7=
EXTT8=
EXTT9=
EXTT10=
EXTT11=
EXTT12=
EXTT13=
EXTT14=
EXTT15=
PLAYORDER=
